%
M48
M72
T01C0.0276
T02C0.0320
T03C0.0394
T04C0.0400
%
T01
X9970Y17488
X10285Y17960
X10600Y17488
X10915Y17960
X11230Y17488
X25650Y4600
X26611Y4600
X27550Y4600
T02
X27100Y8600
X26100Y8600
X25100Y8600
X24100Y8600
X23100Y8600
X22100Y8600
X21100Y8600
X20100Y8600
X19100Y8600
X18100Y8600
X17100Y8600
X16100Y8600
X15100Y8600
X15100Y14600
X16100Y14600
X17100Y14600
X18100Y14600
X19100Y14600
X20100Y14600
X21100Y14600
X22100Y14600
X23100Y14600
X24100Y14600
X25100Y14600
X26100Y14600
X27100Y14600
X28100Y14600
X29100Y14600
X30100Y14600
X31100Y14600
X32100Y14600
X33100Y14600
X34100Y14600
X34100Y8600
X33100Y8600
X32100Y8600
X31100Y8600
X30100Y8600
X29100Y8600
X28100Y8600
T03
X12037Y19476
X9163Y19476
T04
X8100Y10100
X12600Y13100
X13100Y11100
X9100Y14600
X10600Y16600
X15100Y16100
X16100Y16100
X16100Y17100
X15100Y17100
X17100Y17100
X18100Y17100
X18100Y16100
X17100Y16100
X19100Y16100
X20100Y16100
X20100Y17100
X19100Y17100
X18100Y18100
X18100Y19100
X17100Y19100
X16100Y19100
X15100Y19100
X19100Y19100
X20100Y19100
X21100Y17100
X22100Y17100
X22100Y16100
X21100Y16100
X26600Y18100
X28600Y18600
X29600Y18600
X30600Y18600
X31600Y18600
X32600Y18600
X33600Y18600
X33100Y5100
X32100Y5100
X31100Y5100
X30100Y5100
X30100Y4100
X31100Y4100
X32100Y4100
X33100Y4100
X34100Y4100
X34100Y5100
X23600Y5100
X22600Y5100
X21600Y5100
X20600Y5100
X20600Y4100
X21600Y4100
X22600Y4100
X23600Y4100
X22600Y3100
X19100Y4100
X18100Y4100
X17100Y4100
X16100Y4100
X15100Y4100
X15100Y5100
X16100Y5100
X17100Y5100
X18100Y5100
X19100Y5100
M30
